<svg viewBox="0 0 64 64" style="background-color:#ffffff00" xmlns="http://www.w3.org/2000/svg" width="64" height="64"><path d="M48.438 27.087c0 4.286-1.54 7.919-4.618 10.903-3.078 2.984-6.841 4.475-11.29 4.475-4.488 0-8.272-1.483-11.35-4.447-3.079-2.964-4.617-6.607-4.617-10.931 0-4.283 1.549-7.909 4.647-10.874 3.098-2.963 6.871-4.445 11.32-4.445s8.212 1.482 11.29 4.445c3.079 2.965 4.617 6.59 4.617 10.874zM15.67 2C10.882 2 7 5.823 7 10.54v33.152c0 4.717 3.882 8.54 8.67 8.54l1.434-.002c.623 4.157 3.165 9.272 13.27 9.77-5.312-2.792-4.427-6.63-2.214-9.77l21.17.002c4.788 0 8.67-3.823 8.67-8.54V10.54C58 5.823 54.118 2 49.33 2H15.67zm24.724 25.087c0-2.061-.774-3.837-2.323-5.326-1.55-1.488-3.396-2.233-5.542-2.233-2.184 0-4.05.736-5.6 2.203-1.548 1.471-2.323 3.255-2.323 5.356 0 2.1.774 3.895 2.323 5.385 1.55 1.488 3.416 2.232 5.6 2.232 2.185 0 4.042-.744 5.571-2.232 1.53-1.49 2.294-3.285 2.294-5.385z"/></svg>